<mxfile host="app.diagrams.net" agent="Mozilla/5.0 (Windows NT 10.0; Win64; x64) AppleWebKit/537.36 (KHTML, like Gecko) Chrome/131.0.0.0 Safari/537.36 Edg/131.0.0.0" version="24.7.10">
  <diagram name="Page-1" id="vWQC5nWEZKCvRTYfcuEf">
    <mxGraphModel dx="1190" dy="564" grid="0" gridSize="10" guides="1" tooltips="1" connect="1" arrows="1" fold="1" page="1" pageScale="1" pageWidth="850" pageHeight="1100" math="0" shadow="0">
      <root>
        <mxCell id="0" />
        <mxCell id="1" parent="0" />
        <mxCell id="Cw0OMl0PBKaD7ao0CWfG-32" value="" style="rounded=0;whiteSpace=wrap;html=1;" vertex="1" parent="1">
          <mxGeometry x="570" y="60" width="430" height="340" as="geometry" />
        </mxCell>
        <mxCell id="Cw0OMl0PBKaD7ao0CWfG-14" value="" style="rounded=0;whiteSpace=wrap;html=1;" vertex="1" parent="1">
          <mxGeometry x="60" y="60" width="430" height="340" as="geometry" />
        </mxCell>
        <mxCell id="Cw0OMl0PBKaD7ao0CWfG-1" value="Ardupilot" style="rounded=1;whiteSpace=wrap;html=1;" vertex="1" parent="1">
          <mxGeometry x="119" y="90" width="120" height="60" as="geometry" />
        </mxCell>
        <mxCell id="Cw0OMl0PBKaD7ao0CWfG-3" value="" style="ellipse;whiteSpace=wrap;html=1;align=center;aspect=fixed;fillColor=none;strokeColor=none;resizable=0;perimeter=centerPerimeter;rotatable=0;allowArrows=0;points=[];outlineConnect=1;" vertex="1" parent="1">
          <mxGeometry x="410" y="400" width="10" height="10" as="geometry" />
        </mxCell>
        <mxCell id="Cw0OMl0PBKaD7ao0CWfG-8" value="" style="edgeStyle=orthogonalEdgeStyle;rounded=0;orthogonalLoop=1;jettySize=auto;html=1;shape=link;" edge="1" parent="1" source="Cw0OMl0PBKaD7ao0CWfG-6" target="Cw0OMl0PBKaD7ao0CWfG-7">
          <mxGeometry relative="1" as="geometry" />
        </mxCell>
        <mxCell id="Cw0OMl0PBKaD7ao0CWfG-6" value="Broadband probe" style="rounded=0;whiteSpace=wrap;html=1;" vertex="1" parent="1">
          <mxGeometry x="119" y="330" width="120" height="60" as="geometry" />
        </mxCell>
        <mxCell id="Cw0OMl0PBKaD7ao0CWfG-19" style="edgeStyle=orthogonalEdgeStyle;rounded=0;orthogonalLoop=1;jettySize=auto;html=1;exitX=0.5;exitY=0;exitDx=0;exitDy=0;shape=link;" edge="1" parent="1" source="Cw0OMl0PBKaD7ao0CWfG-7" target="Cw0OMl0PBKaD7ao0CWfG-18">
          <mxGeometry relative="1" as="geometry" />
        </mxCell>
        <mxCell id="Cw0OMl0PBKaD7ao0CWfG-7" value="Pi" style="rounded=0;whiteSpace=wrap;html=1;" vertex="1" parent="1">
          <mxGeometry x="119" y="250" width="120" height="60" as="geometry" />
        </mxCell>
        <mxCell id="Cw0OMl0PBKaD7ao0CWfG-11" value="" style="ellipse;whiteSpace=wrap;html=1;align=center;aspect=fixed;fillColor=none;strokeColor=none;resizable=0;perimeter=centerPerimeter;rotatable=0;allowArrows=0;points=[];outlineConnect=1;" vertex="1" parent="1">
          <mxGeometry x="345" y="220" width="10" height="10" as="geometry" />
        </mxCell>
        <mxCell id="Cw0OMl0PBKaD7ao0CWfG-17" style="edgeStyle=orthogonalEdgeStyle;rounded=0;orthogonalLoop=1;jettySize=auto;html=1;exitX=0;exitY=0.5;exitDx=0;exitDy=0;shape=link;entryX=1;entryY=0.5;entryDx=0;entryDy=0;" edge="1" parent="1" source="Cw0OMl0PBKaD7ao0CWfG-15" target="Cw0OMl0PBKaD7ao0CWfG-18">
          <mxGeometry relative="1" as="geometry">
            <mxPoint x="289.81081081081084" y="180" as="targetPoint" />
          </mxGeometry>
        </mxCell>
        <mxCell id="Cw0OMl0PBKaD7ao0CWfG-15" value="Telemetry radio" style="rounded=0;whiteSpace=wrap;html=1;" vertex="1" parent="1">
          <mxGeometry x="239" y="175" width="60" height="40" as="geometry" />
        </mxCell>
        <mxCell id="Cw0OMl0PBKaD7ao0CWfG-20" value="" style="edgeStyle=orthogonalEdgeStyle;rounded=0;orthogonalLoop=1;jettySize=auto;html=1;shape=link;" edge="1" parent="1" source="Cw0OMl0PBKaD7ao0CWfG-18" target="Cw0OMl0PBKaD7ao0CWfG-1">
          <mxGeometry relative="1" as="geometry" />
        </mxCell>
        <mxCell id="Cw0OMl0PBKaD7ao0CWfG-18" value="Mavlink" style="ellipse;whiteSpace=wrap;html=1;" vertex="1" parent="1">
          <mxGeometry x="151.5" y="180" width="55" height="30" as="geometry" />
        </mxCell>
        <mxCell id="Cw0OMl0PBKaD7ao0CWfG-21" value="" style="endArrow=none;dashed=1;html=1;dashPattern=1 3;strokeWidth=2;rounded=0;exitX=1.045;exitY=0.624;exitDx=0;exitDy=0;exitPerimeter=0;entryX=0;entryY=0.5;entryDx=0;entryDy=0;" edge="1" parent="1" source="Cw0OMl0PBKaD7ao0CWfG-15" target="Cw0OMl0PBKaD7ao0CWfG-27">
          <mxGeometry width="50" height="50" relative="1" as="geometry">
            <mxPoint x="335" y="190" as="sourcePoint" />
            <mxPoint x="630" y="200" as="targetPoint" />
          </mxGeometry>
        </mxCell>
        <mxCell id="Cw0OMl0PBKaD7ao0CWfG-22" value="DRONE" style="text;html=1;align=center;verticalAlign=middle;resizable=0;points=[];autosize=1;strokeColor=none;fillColor=none;" vertex="1" parent="1">
          <mxGeometry x="49" y="60" width="70" height="30" as="geometry" />
        </mxCell>
        <mxCell id="Cw0OMl0PBKaD7ao0CWfG-29" style="edgeStyle=orthogonalEdgeStyle;rounded=0;orthogonalLoop=1;jettySize=auto;html=1;entryX=0;entryY=0.5;entryDx=0;entryDy=0;shape=link;" edge="1" parent="1" source="Cw0OMl0PBKaD7ao0CWfG-23" target="Cw0OMl0PBKaD7ao0CWfG-24">
          <mxGeometry relative="1" as="geometry" />
        </mxCell>
        <mxCell id="Cw0OMl0PBKaD7ao0CWfG-30" style="edgeStyle=orthogonalEdgeStyle;rounded=0;orthogonalLoop=1;jettySize=auto;html=1;exitX=1;exitY=0.5;exitDx=0;exitDy=0;entryX=0;entryY=0.5;entryDx=0;entryDy=0;shape=link;" edge="1" parent="1" source="Cw0OMl0PBKaD7ao0CWfG-23" target="Cw0OMl0PBKaD7ao0CWfG-25">
          <mxGeometry relative="1" as="geometry" />
        </mxCell>
        <mxCell id="Cw0OMl0PBKaD7ao0CWfG-23" value="Proxy" style="rounded=1;whiteSpace=wrap;html=1;" vertex="1" parent="1">
          <mxGeometry x="680" y="247" width="120" height="60" as="geometry" />
        </mxCell>
        <mxCell id="Cw0OMl0PBKaD7ao0CWfG-31" style="edgeStyle=orthogonalEdgeStyle;rounded=0;orthogonalLoop=1;jettySize=auto;html=1;entryX=0.5;entryY=1;entryDx=0;entryDy=0;shape=link;" edge="1" parent="1" source="Cw0OMl0PBKaD7ao0CWfG-24" target="Cw0OMl0PBKaD7ao0CWfG-26">
          <mxGeometry relative="1" as="geometry" />
        </mxCell>
        <mxCell id="Cw0OMl0PBKaD7ao0CWfG-24" value="Backend" style="rounded=1;whiteSpace=wrap;html=1;" vertex="1" parent="1">
          <mxGeometry x="850" y="177" width="120" height="60" as="geometry" />
        </mxCell>
        <mxCell id="Cw0OMl0PBKaD7ao0CWfG-25" value="GCS" style="rounded=1;whiteSpace=wrap;html=1;" vertex="1" parent="1">
          <mxGeometry x="850" y="317" width="120" height="60" as="geometry" />
        </mxCell>
        <mxCell id="Cw0OMl0PBKaD7ao0CWfG-26" value="Frontend" style="rounded=1;whiteSpace=wrap;html=1;" vertex="1" parent="1">
          <mxGeometry x="850" y="77" width="120" height="60" as="geometry" />
        </mxCell>
        <mxCell id="Cw0OMl0PBKaD7ao0CWfG-28" value="" style="edgeStyle=orthogonalEdgeStyle;rounded=0;orthogonalLoop=1;jettySize=auto;html=1;shape=link;" edge="1" parent="1" source="Cw0OMl0PBKaD7ao0CWfG-27" target="Cw0OMl0PBKaD7ao0CWfG-23">
          <mxGeometry relative="1" as="geometry" />
        </mxCell>
        <mxCell id="Cw0OMl0PBKaD7ao0CWfG-27" value="Telemetry radio" style="rounded=0;whiteSpace=wrap;html=1;" vertex="1" parent="1">
          <mxGeometry x="590" y="257" width="60" height="40" as="geometry" />
        </mxCell>
        <mxCell id="Cw0OMl0PBKaD7ao0CWfG-33" value="LAPTOP" style="text;html=1;align=center;verticalAlign=middle;resizable=0;points=[];autosize=1;strokeColor=none;fillColor=none;" vertex="1" parent="1">
          <mxGeometry x="570" y="60" width="70" height="30" as="geometry" />
        </mxCell>
        <mxCell id="Cw0OMl0PBKaD7ao0CWfG-34" value="" style="rounded=0;whiteSpace=wrap;html=1;" vertex="1" parent="1">
          <mxGeometry x="569" y="480" width="430" height="340" as="geometry" />
        </mxCell>
        <mxCell id="Cw0OMl0PBKaD7ao0CWfG-35" value="" style="rounded=0;whiteSpace=wrap;html=1;" vertex="1" parent="1">
          <mxGeometry x="59" y="480" width="430" height="340" as="geometry" />
        </mxCell>
        <mxCell id="Cw0OMl0PBKaD7ao0CWfG-36" value="Ardupilot" style="rounded=1;whiteSpace=wrap;html=1;" vertex="1" parent="1">
          <mxGeometry x="118" y="510" width="120" height="60" as="geometry" />
        </mxCell>
        <mxCell id="Cw0OMl0PBKaD7ao0CWfG-37" value="" style="ellipse;whiteSpace=wrap;html=1;align=center;aspect=fixed;fillColor=none;strokeColor=none;resizable=0;perimeter=centerPerimeter;rotatable=0;allowArrows=0;points=[];outlineConnect=1;" vertex="1" parent="1">
          <mxGeometry x="409" y="820" width="10" height="10" as="geometry" />
        </mxCell>
        <mxCell id="Cw0OMl0PBKaD7ao0CWfG-38" value="" style="edgeStyle=orthogonalEdgeStyle;rounded=0;orthogonalLoop=1;jettySize=auto;html=1;shape=link;" edge="1" parent="1" source="Cw0OMl0PBKaD7ao0CWfG-39" target="Cw0OMl0PBKaD7ao0CWfG-41">
          <mxGeometry relative="1" as="geometry" />
        </mxCell>
        <mxCell id="Cw0OMl0PBKaD7ao0CWfG-39" value="Broadband probe" style="rounded=0;whiteSpace=wrap;html=1;" vertex="1" parent="1">
          <mxGeometry x="118" y="750" width="120" height="60" as="geometry" />
        </mxCell>
        <mxCell id="Cw0OMl0PBKaD7ao0CWfG-40" style="edgeStyle=orthogonalEdgeStyle;rounded=0;orthogonalLoop=1;jettySize=auto;html=1;exitX=0.5;exitY=0;exitDx=0;exitDy=0;shape=link;" edge="1" parent="1" source="Cw0OMl0PBKaD7ao0CWfG-41" target="Cw0OMl0PBKaD7ao0CWfG-46">
          <mxGeometry relative="1" as="geometry" />
        </mxCell>
        <mxCell id="Cw0OMl0PBKaD7ao0CWfG-41" value="Pi" style="rounded=0;whiteSpace=wrap;html=1;" vertex="1" parent="1">
          <mxGeometry x="118" y="670" width="120" height="60" as="geometry" />
        </mxCell>
        <mxCell id="Cw0OMl0PBKaD7ao0CWfG-42" value="" style="ellipse;whiteSpace=wrap;html=1;align=center;aspect=fixed;fillColor=none;strokeColor=none;resizable=0;perimeter=centerPerimeter;rotatable=0;allowArrows=0;points=[];outlineConnect=1;" vertex="1" parent="1">
          <mxGeometry x="344" y="640" width="10" height="10" as="geometry" />
        </mxCell>
        <mxCell id="Cw0OMl0PBKaD7ao0CWfG-43" style="edgeStyle=orthogonalEdgeStyle;rounded=0;orthogonalLoop=1;jettySize=auto;html=1;exitX=0;exitY=0.5;exitDx=0;exitDy=0;shape=link;entryX=1;entryY=0.5;entryDx=0;entryDy=0;" edge="1" parent="1" source="Cw0OMl0PBKaD7ao0CWfG-44" target="Cw0OMl0PBKaD7ao0CWfG-46">
          <mxGeometry relative="1" as="geometry">
            <mxPoint x="288.81081081081084" y="600" as="targetPoint" />
          </mxGeometry>
        </mxCell>
        <mxCell id="Cw0OMl0PBKaD7ao0CWfG-44" value="Telemetry radio" style="rounded=0;whiteSpace=wrap;html=1;" vertex="1" parent="1">
          <mxGeometry x="238" y="595" width="60" height="40" as="geometry" />
        </mxCell>
        <mxCell id="Cw0OMl0PBKaD7ao0CWfG-45" value="" style="edgeStyle=orthogonalEdgeStyle;rounded=0;orthogonalLoop=1;jettySize=auto;html=1;shape=link;" edge="1" parent="1" source="Cw0OMl0PBKaD7ao0CWfG-46" target="Cw0OMl0PBKaD7ao0CWfG-36">
          <mxGeometry relative="1" as="geometry" />
        </mxCell>
        <mxCell id="Cw0OMl0PBKaD7ao0CWfG-46" value="Mavlink" style="ellipse;whiteSpace=wrap;html=1;" vertex="1" parent="1">
          <mxGeometry x="150.5" y="600" width="55" height="30" as="geometry" />
        </mxCell>
        <mxCell id="Cw0OMl0PBKaD7ao0CWfG-47" value="" style="endArrow=none;dashed=1;html=1;dashPattern=1 3;strokeWidth=2;rounded=0;exitX=1.045;exitY=0.624;exitDx=0;exitDy=0;exitPerimeter=0;entryX=0;entryY=0.5;entryDx=0;entryDy=0;" edge="1" parent="1" source="Cw0OMl0PBKaD7ao0CWfG-44" target="Cw0OMl0PBKaD7ao0CWfG-57">
          <mxGeometry width="50" height="50" relative="1" as="geometry">
            <mxPoint x="334" y="610" as="sourcePoint" />
            <mxPoint x="629" y="620" as="targetPoint" />
          </mxGeometry>
        </mxCell>
        <mxCell id="Cw0OMl0PBKaD7ao0CWfG-48" value="DRONE" style="text;html=1;align=center;verticalAlign=middle;resizable=0;points=[];autosize=1;strokeColor=none;fillColor=none;" vertex="1" parent="1">
          <mxGeometry x="48" y="480" width="70" height="30" as="geometry" />
        </mxCell>
        <mxCell id="Cw0OMl0PBKaD7ao0CWfG-54" value="GCS" style="rounded=1;whiteSpace=wrap;html=1;" vertex="1" parent="1">
          <mxGeometry x="710" y="590" width="120" height="60" as="geometry" />
        </mxCell>
        <mxCell id="Cw0OMl0PBKaD7ao0CWfG-55" value="Frontend" style="rounded=1;whiteSpace=wrap;html=1;" vertex="1" parent="1">
          <mxGeometry x="590" y="670" width="120" height="60" as="geometry" />
        </mxCell>
        <mxCell id="Cw0OMl0PBKaD7ao0CWfG-61" value="" style="edgeStyle=orthogonalEdgeStyle;rounded=0;orthogonalLoop=1;jettySize=auto;html=1;shape=link;" edge="1" parent="1" source="Cw0OMl0PBKaD7ao0CWfG-57" target="Cw0OMl0PBKaD7ao0CWfG-54">
          <mxGeometry relative="1" as="geometry" />
        </mxCell>
        <mxCell id="Cw0OMl0PBKaD7ao0CWfG-57" value="Telemetry radio" style="rounded=0;whiteSpace=wrap;html=1;" vertex="1" parent="1">
          <mxGeometry x="590" y="600" width="60" height="40" as="geometry" />
        </mxCell>
        <mxCell id="Cw0OMl0PBKaD7ao0CWfG-58" value="LAPTOP" style="text;html=1;align=center;verticalAlign=middle;resizable=0;points=[];autosize=1;strokeColor=none;fillColor=none;" vertex="1" parent="1">
          <mxGeometry x="569" y="480" width="70" height="30" as="geometry" />
        </mxCell>
        <mxCell id="Cw0OMl0PBKaD7ao0CWfG-59" value="Backend" style="rounded=1;whiteSpace=wrap;html=1;" vertex="1" parent="1">
          <mxGeometry x="170" y="707" width="60" height="20" as="geometry" />
        </mxCell>
        <mxCell id="Cw0OMl0PBKaD7ao0CWfG-62" value="" style="endArrow=none;dashed=1;html=1;dashPattern=1 3;strokeWidth=2;rounded=0;exitX=1;exitY=0.5;exitDx=0;exitDy=0;entryX=0;entryY=0.5;entryDx=0;entryDy=0;" edge="1" parent="1" source="Cw0OMl0PBKaD7ao0CWfG-41" target="Cw0OMl0PBKaD7ao0CWfG-55">
          <mxGeometry width="50" height="50" relative="1" as="geometry">
            <mxPoint x="269.5" y="699.64" as="sourcePoint" />
            <mxPoint x="558.5" y="699.64" as="targetPoint" />
          </mxGeometry>
        </mxCell>
        <mxCell id="Cw0OMl0PBKaD7ao0CWfG-63" value="wifi signal 2.4Ghz" style="text;html=1;align=center;verticalAlign=middle;resizable=0;points=[];autosize=1;strokeColor=none;fillColor=none;" vertex="1" parent="1">
          <mxGeometry x="374" y="677" width="120" height="30" as="geometry" />
        </mxCell>
        <mxCell id="Cw0OMl0PBKaD7ao0CWfG-64" value="433 Mhz" style="text;html=1;align=center;verticalAlign=middle;resizable=0;points=[];autosize=1;strokeColor=none;fillColor=none;" vertex="1" parent="1">
          <mxGeometry x="490" y="595" width="70" height="30" as="geometry" />
        </mxCell>
        <mxCell id="Cw0OMl0PBKaD7ao0CWfG-65" value="433 Mhz" style="text;html=1;align=center;verticalAlign=middle;resizable=0;points=[];autosize=1;strokeColor=none;fillColor=none;" vertex="1" parent="1">
          <mxGeometry x="489" y="230" width="70" height="30" as="geometry" />
        </mxCell>
      </root>
    </mxGraphModel>
  </diagram>
</mxfile>
